<svg width="1200" height="420" viewBox="0 0 1200 420" xmlns="http://www.w3.org/2000/svg" role="img" aria-label="UV awareness charts illustration">
  <defs>
    <linearGradient id="g1" x1="0" x2="1" y1="0" y2="1">
      <stop offset="0" stop-color="#eefcf1"/>
      <stop offset="1" stop-color="#ddf0ff"/>
    </linearGradient>
  </defs>
  <rect width="1200" height="420" rx="24" fill="url(#g1)"/>
  <rect x="70" y="72" width="500" height="276" rx="20" fill="#ffffff" stroke="#cce0f5" stroke-width="3"/>
  <rect x="630" y="72" width="500" height="276" rx="20" fill="#ffffff" stroke="#cce0f5" stroke-width="3"/>

  <g transform="translate(102 112)">
    <line x1="0" y1="170" x2="420" y2="170" stroke="#dce6f4" stroke-width="2"/>
    <line x1="0" y1="20" x2="0" y2="170" stroke="#dce6f4" stroke-width="2"/>
    <rect x="26" y="114" width="30" height="56" rx="4" fill="#f19000"/>
    <rect x="86" y="92" width="30" height="78" rx="4" fill="#f19000"/>
    <rect x="146" y="74" width="30" height="96" rx="4" fill="#f19000"/>
    <rect x="206" y="58" width="30" height="112" rx="4" fill="#f19000"/>
    <rect x="266" y="38" width="30" height="132" rx="4" fill="#f19000"/>
    <rect x="326" y="24" width="30" height="146" rx="4" fill="#f19000"/>
    <rect x="386" y="14" width="30" height="156" rx="4" fill="#f19000"/>
  </g>

  <g transform="translate(662 112)">
    <line x1="0" y1="170" x2="420" y2="170" stroke="#dce6f4" stroke-width="2"/>
    <line x1="0" y1="20" x2="0" y2="170" stroke="#dce6f4" stroke-width="2"/>
    <polyline points="0,140 60,120 120,126 180,95 240,70 300,64 360,52 420,40" fill="none" stroke="#1667c4" stroke-width="6" stroke-linecap="round" stroke-linejoin="round"/>
    <circle cx="0" cy="140" r="6" fill="#1667c4"/>
    <circle cx="60" cy="120" r="6" fill="#1667c4"/>
    <circle cx="120" cy="126" r="6" fill="#1667c4"/>
    <circle cx="180" cy="95" r="6" fill="#1667c4"/>
    <circle cx="240" cy="70" r="6" fill="#1667c4"/>
    <circle cx="300" cy="64" r="6" fill="#1667c4"/>
    <circle cx="360" cy="52" r="6" fill="#1667c4"/>
    <circle cx="420" cy="40" r="6" fill="#1667c4"/>
  </g>

  <text x="84" y="52" font-size="42" font-family="Verdana, sans-serif" fill="#143b60" font-weight="700">Awareness Through Visual Data</text>
  <text x="84" y="92" font-size="20" font-family="Verdana, sans-serif" fill="#2f628f">Compare UV trends and skin cancer impacts at a glance.</text>
</svg>
