<svg width="1200" height="420" viewBox="0 0 1200 420" xmlns="http://www.w3.org/2000/svg" role="img" aria-label="Sun over city skyline">
  <defs>
    <linearGradient id="bg" x1="0" x2="1" y1="0" y2="1">
      <stop offset="0" stop-color="#fff3d6"/>
      <stop offset="1" stop-color="#dff4ff"/>
    </linearGradient>
    <linearGradient id="sun" x1="0" x2="0" y1="0" y2="1">
      <stop offset="0" stop-color="#ffbd3a"/>
      <stop offset="1" stop-color="#ff8f00"/>
    </linearGradient>
  </defs>
  <rect width="1200" height="420" rx="24" fill="url(#bg)"/>
  <circle cx="930" cy="110" r="64" fill="url(#sun)"/>
  <g stroke="#ffaf2a" stroke-width="6" stroke-linecap="round" opacity="0.8">
    <line x1="930" y1="20" x2="930" y2="0"/>
    <line x1="930" y1="220" x2="930" y2="200"/>
    <line x1="840" y1="110" x2="820" y2="110"/>
    <line x1="1040" y1="110" x2="1060" y2="110"/>
    <line x1="865" y1="45" x2="850" y2="30"/>
    <line x1="995" y1="175" x2="1010" y2="190"/>
    <line x1="865" y1="175" x2="850" y2="190"/>
    <line x1="995" y1="45" x2="1010" y2="30"/>
  </g>
  <path d="M0 316 Q180 270 350 300 T700 304 T1200 285 L1200 420 L0 420 Z" fill="#d6ebff"/>
  <g fill="#244666" opacity="0.88">
    <rect x="80" y="200" width="60" height="170" rx="6"/>
    <rect x="148" y="238" width="48" height="132" rx="6"/>
    <rect x="205" y="170" width="76" height="200" rx="6"/>
    <rect x="288" y="224" width="54" height="146" rx="6"/>
    <rect x="350" y="188" width="64" height="182" rx="6"/>
    <rect x="423" y="246" width="52" height="124" rx="6"/>
  </g>
  <g fill="#ffffff" opacity="0.8">
    <circle cx="170" cy="86" r="20"/>
    <circle cx="194" cy="86" r="26"/>
    <circle cx="218" cy="90" r="20"/>
    <circle cx="300" cy="140" r="15"/>
    <circle cx="320" cy="138" r="20"/>
    <circle cx="340" cy="142" r="15"/>
  </g>
  <text x="84" y="84" font-size="44" font-family="Verdana, sans-serif" fill="#16385f" font-weight="700">Live UV Snapshot</text>
  <text x="84" y="124" font-size="21" font-family="Verdana, sans-serif" fill="#365f88">Check risk quickly and act before skin damage starts.</text>
</svg>
