<svg width="1200" height="420" viewBox="0 0 1200 420" xmlns="http://www.w3.org/2000/svg" role="img" aria-label="Sun-safe outfit illustration">
  <defs>
    <linearGradient id="bgp" x1="0" x2="1" y1="0" y2="1">
      <stop offset="0" stop-color="#fff1e6"/>
      <stop offset="1" stop-color="#e9f8ff"/>
    </linearGradient>
  </defs>
  <rect width="1200" height="420" rx="24" fill="url(#bgp)"/>

  <circle cx="1020" cy="86" r="48" fill="#ffad2b"/>
  <g fill="#274f73">
    <rect x="160" y="186" width="110" height="150" rx="20"/>
    <rect x="286" y="170" width="100" height="166" rx="20"/>
    <rect x="402" y="154" width="110" height="182" rx="20"/>
    <rect x="528" y="170" width="100" height="166" rx="20"/>
  </g>

  <g transform="translate(700 120)">
    <circle cx="90" cy="64" r="42" fill="#ffd59a"/>
    <path d="M30 58 Q90 6 150 58" fill="#c17d00"/>
    <path d="M52 113 Q90 132 128 113 L128 218 Q90 236 52 218 Z" fill="#49a6c8"/>
    <rect x="20" y="150" width="34" height="78" rx="15" fill="#ffd59a"/>
    <rect x="126" y="150" width="34" height="78" rx="15" fill="#ffd59a"/>
    <rect x="60" y="214" width="30" height="112" rx="14" fill="#24364d"/>
    <rect x="94" y="214" width="30" height="112" rx="14" fill="#24364d"/>
    <ellipse cx="74" cy="326" rx="28" ry="11" fill="#1a2737"/>
    <ellipse cx="110" cy="326" rx="28" ry="11" fill="#1a2737"/>
  </g>

  <text x="78" y="74" font-size="42" font-family="Verdana, sans-serif" fill="#163c62" font-weight="700">Plan A Sun-Smart Outfit</text>
  <text x="78" y="112" font-size="20" font-family="Verdana, sans-serif" fill="#386893">Match clothing, sunscreen, and reminders to UV risk.</text>
</svg>
